<svg width="19" height="21" viewBox="0 0 19 21" fill="none" xmlns="http://www.w3.org/2000/svg">
<path d="M12.2506 6.25C12.8439 6.25 13.424 6.07405 13.9173 5.74441C14.4106 5.41477 14.7952 4.94623 15.0222 4.39805C15.2493 3.84987 15.3087 3.24667 15.1929 2.66473C15.0772 2.08279 14.7915 1.54824 14.3719 1.12868C13.9524 0.709123 13.4178 0.423401 12.8359 0.307646C12.2539 0.19189 11.6507 0.2513 11.1025 0.478363C10.5544 0.705426 10.0858 1.08994 9.75618 1.58329C9.42654 2.07664 9.25059 2.65666 9.25059 3.25C9.25148 4.04538 9.56784 4.80792 10.1303 5.37033C10.6927 5.93275 11.4552 6.24911 12.2506 6.25ZM12.2506 1.75C12.5473 1.75 12.8373 1.83797 13.0839 2.0028C13.3306 2.16762 13.5229 2.40189 13.6364 2.67598C13.7499 2.95007 13.7796 3.25167 13.7218 3.54264C13.6639 3.83361 13.521 4.10088 13.3112 4.31066C13.1015 4.52044 12.8342 4.6633 12.5432 4.72118C12.2523 4.77906 11.9507 4.74935 11.6766 4.63582C11.4025 4.52229 11.1682 4.33003 11.0034 4.08336C10.8386 3.83668 10.7506 3.54667 10.7506 3.25C10.751 2.85231 10.9092 2.47104 11.1904 2.18983C11.4716 1.90863 11.8529 1.75045 12.2506 1.75ZM18.5987 11.1844L18.5989 11.1846C18.5404 11.2153 17.8807 11.5457 16.7162 11.5458C15.4217 11.5458 13.5031 11.1372 11.0917 9.45513C10.7126 10.5761 10.2067 11.6501 9.58378 12.6562C10.6383 12.9812 11.6303 13.4823 12.5178 14.1382C14.3056 15.4982 15.2506 17.4388 15.2506 19.75C15.2506 19.9489 15.1716 20.1397 15.0309 20.2803C14.8903 20.421 14.6995 20.5 14.5006 20.5C14.3017 20.5 14.1109 20.421 13.9703 20.2803C13.8296 20.1397 13.7506 19.9489 13.7506 19.75C13.7506 15.8397 10.4976 14.4325 8.67431 13.9516C7.12134 15.9053 4.87622 17.5413 1.81678 17.5413C1.52697 17.5413 1.23003 17.5263 0.925968 17.4963C0.827341 17.4872 0.731473 17.4588 0.643898 17.4126C0.556324 17.3663 0.478776 17.3032 0.415731 17.2268C0.352687 17.1504 0.305393 17.0623 0.276581 16.9675C0.247769 16.8728 0.238008 16.7733 0.247863 16.6747C0.257717 16.5762 0.286992 16.4806 0.333997 16.3934C0.381001 16.3062 0.444805 16.2292 0.521726 16.1668C0.598647 16.1045 0.687161 16.0579 0.78216 16.0299C0.877159 16.0019 0.976761 15.993 1.07522 16.0038C3.59109 16.2549 5.76431 15.2367 7.53459 12.9762C7.6103 12.8792 7.68443 12.781 7.75697 12.6816L7.76475 12.671C8.6736 11.4073 9.36563 10.001 9.81244 8.50985C6.17606 5.97991 3.85612 7.98485 3.75515 8.07531C3.68254 8.14186 3.59753 8.19345 3.50498 8.22714C3.41243 8.26083 3.31415 8.27596 3.21575 8.27167C3.11736 8.26737 3.02077 8.24374 2.9315 8.20212C2.84224 8.1605 2.76204 8.10171 2.6955 8.02909C2.62896 7.95648 2.57737 7.87147 2.54368 7.77892C2.50999 7.68637 2.49485 7.58809 2.49915 7.48969C2.50344 7.3913 2.52707 7.29471 2.56869 7.20544C2.61031 7.11618 2.6691 7.03598 2.74172 6.96944C2.83453 6.88366 3.69159 6.12344 5.17134 5.83881C7.61794 5.368 9.80709 6.5801 11.2127 7.67969C13.442 9.42372 15.1577 9.91722 16.2044 10.0241C17.3048 10.1369 17.9073 9.85347 17.9132 9.85066L17.9023 9.85619L17.9025 9.85638C17.9897 9.81066 18.085 9.78257 18.1831 9.77371C18.2812 9.76485 18.38 9.77539 18.474 9.80473C18.568 9.83406 18.6553 9.88163 18.7309 9.9447C18.8065 10.0078 18.8689 10.0851 18.9146 10.1723C18.9603 10.2595 18.9884 10.3549 18.9973 10.4529C19.0061 10.551 18.9956 10.6498 18.9663 10.7438C18.9369 10.8378 18.8894 10.9251 18.8263 11.0007C18.7632 11.0763 18.6859 11.1387 18.5987 11.1844Z" fill="black"/>
</svg>
